<svg id="svg" version="1.1" width="400" height="400" viewBox="0 0 400 400" xmlns="http://www.w3.org/2000/svg" xmlns:xlink="http://www.w3.org/1999/xlink" ><g id="svgg"><path id="path0" d="M193.950 50.631 C 171.793 55.987,168.249 87.361,188.672 97.361 C 205.548 105.624,224.988 93.654,224.988 75.000 C 224.988 58.809,209.717 46.819,193.950 50.631 M94.141 75.592 C 77.458 79.683,69.577 99.514,79.007 113.672 C 79.651 114.639,99.183 134.458,122.412 157.715 L 164.647 200.000 122.412 242.285 C 80.794 283.954,78.695 286.159,76.984 290.039 C 67.968 310.485,89.515 332.032,109.961 323.016 C 113.841 321.305,116.046 319.206,157.715 277.588 L 200.000 235.353 242.285 277.588 C 283.954 319.206,286.159 321.305,290.039 323.016 C 310.485 332.032,332.032 310.485,323.016 290.039 C 321.305 286.159,319.206 283.954,277.588 242.285 L 235.353 200.000 277.588 157.715 C 319.390 115.862,321.382 113.768,322.988 109.961 C 332.526 87.361,307.542 65.906,286.719 78.814 C 285.283 79.704,270.534 94.171,242.285 122.397 L 200.000 164.647 157.715 122.397 C 114.739 79.456,113.712 78.492,108.984 76.642 C 104.588 74.921,98.602 74.498,94.141 75.592 M68.950 175.631 C 53.564 179.350,45.559 196.868,52.639 211.328 C 62.689 231.853,94.148 228.173,99.392 205.859 C 103.653 187.728,87.061 171.252,68.950 175.631 M318.950 175.631 C 296.793 180.987,293.249 212.361,313.672 222.361 C 330.548 230.624,349.988 218.654,349.988 200.000 C 349.988 183.809,334.717 171.819,318.950 175.631 M193.950 300.631 C 171.793 305.987,168.249 337.361,188.672 347.361 C 205.548 355.624,224.988 343.654,224.988 325.000 C 224.988 308.809,209.717 296.819,193.950 300.631 " stroke="none" fill="#e2e2e2" fill-rule="evenodd"></path><path id="path1" d="M186.133 0.242 C 160.295 2.755,141.779 7.225,121.680 15.804 C 25.710 56.766,-22.790 164.372,10.137 263.281 C 44.998 367.998,158.490 424.749,263.281 389.863 C 367.998 355.002,424.749 241.510,389.863 136.719 C 365.147 62.474,300.650 10.410,221.680 0.955 C 216.508 0.336,190.526 -0.186,186.133 0.242 M205.859 50.608 C 231.061 56.530,231.061 93.470,205.859 99.392 C 190.120 103.090,175.012 91.144,175.012 75.000 C 175.012 58.859,190.123 46.910,205.859 50.608 M105.078 75.410 C 107.668 75.986,110.847 77.305,113.281 78.814 C 114.717 79.704,129.466 94.171,157.715 122.397 L 200.000 164.647 242.285 122.397 C 270.534 94.171,285.283 79.704,286.719 78.814 C 307.542 65.906,332.526 87.361,322.988 109.961 C 321.382 113.768,319.390 115.862,277.588 157.715 L 235.353 200.000 277.588 242.285 C 319.206 283.954,321.305 286.159,323.016 290.039 C 332.032 310.485,310.485 332.032,290.039 323.016 C 286.159 321.305,283.954 319.206,242.285 277.588 L 200.000 235.353 157.715 277.588 C 116.046 319.206,113.841 321.305,109.961 323.016 C 89.515 332.032,67.968 310.485,76.984 290.039 C 78.695 286.159,80.794 283.954,122.412 242.285 L 164.647 200.000 122.412 157.715 C 80.610 115.862,78.618 113.768,77.012 109.961 C 69.172 91.385,85.657 71.091,105.078 75.410 M80.859 175.608 C 106.061 181.530,106.061 218.470,80.859 224.392 C 65.120 228.090,50.012 216.144,50.012 200.000 C 50.012 183.859,65.123 171.910,80.859 175.608 M330.859 175.608 C 356.061 181.530,356.061 218.470,330.859 224.392 C 315.120 228.090,300.012 216.144,300.012 200.000 C 300.012 183.859,315.123 171.910,330.859 175.608 M205.859 300.608 C 214.648 302.673,222.327 310.352,224.392 319.141 C 228.090 334.880,216.144 349.988,200.000 349.988 C 186.096 349.988,175.012 338.904,175.012 325.000 C 175.012 308.859,190.123 296.910,205.859 300.608 " stroke="none" fill="#101020" fill-rule="evenodd"></path></g></svg>