<svg id="svg" version="1.1" width="1024" height="1024" xmlns="http://www.w3.org/2000/svg" xmlns:xlink="http://www.w3.org/1999/xlink" ><g id="svgg"><path id="path0" d="M186.133 0.242 C 160.295 2.755,141.779 7.225,121.680 15.804 C 25.710 56.766,-22.790 164.372,10.137 263.281 C 44.998 367.998,158.490 424.749,263.281 389.863 C 367.998 355.002,424.749 241.510,389.863 136.719 C 365.147 62.474,300.650 10.410,221.680 0.955 C 216.508 0.336,190.526 -0.186,186.133 0.242 M205.859 50.608 C 231.061 56.530,231.061 93.470,205.859 99.392 C 190.120 103.090,175.012 91.144,175.012 75.000 C 175.012 58.859,190.123 46.910,205.859 50.608 M108.203 76.377 C 113.654 78.369,113.621 78.339,157.715 122.397 L 200.000 164.647 242.285 122.397 C 269.919 94.786,285.315 79.679,286.719 78.797 C 293.712 74.405,303.350 73.835,310.639 77.380 C 323.763 83.765,328.652 98.679,321.958 111.914 C 320.674 114.453,317.522 117.706,277.966 157.326 L 235.356 200.004 277.605 242.287 C 305.215 269.920,320.321 285.315,321.203 286.719 C 329.692 300.237,323.463 317.936,308.203 323.656 C 304.796 324.933,296.590 325.289,293.555 324.291 C 286.587 322.001,288.084 323.365,242.285 277.603 L 200.000 235.353 157.715 277.603 C 115.759 319.524,113.746 321.428,109.570 323.138 C 100.494 326.854,89.785 324.820,82.667 318.027 C 74.258 310.003,72.600 296.587,78.797 286.719 C 79.679 285.315,94.785 269.920,122.395 242.287 L 164.644 200.004 122.034 157.326 C 82.478 117.706,79.326 114.453,78.042 111.914 C 71.348 98.679,76.237 83.765,89.361 77.380 C 91.324 76.425,92.407 76.069,95.898 75.228 C 98.232 74.666,105.337 75.329,108.203 76.377 M80.859 175.608 C 106.061 181.530,106.061 218.470,80.859 224.392 C 65.120 228.090,50.012 216.144,50.012 200.000 C 50.012 183.859,65.123 171.910,80.859 175.608 M330.859 175.608 C 356.061 181.530,356.061 218.470,330.859 224.392 C 315.120 228.090,300.012 216.144,300.012 200.000 C 300.012 183.859,315.123 171.910,330.859 175.608 M205.859 300.608 C 214.648 302.673,222.327 310.352,224.392 319.141 C 228.090 334.880,216.144 349.988,200.000 349.988 C 186.096 349.988,175.012 338.904,175.012 325.000 C 175.012 308.859,190.123 296.910,205.859 300.608 " stroke="none" fill="#000000" fill-rule="evenodd"></path></g></svg>